<?xml version="1.0" encoding="utf-8"?>
<!-- Generator: Adobe Illustrator 23.1.0, SVG Export Plug-In . SVG Version: 6.00 Build 0)  -->
<svg version="1.1" id="Layer_4" xmlns="http://www.w3.org/2000/svg" xmlns:xlink="http://www.w3.org/1999/xlink" x="0px" y="0px"
	 viewBox="0 0 402.2 499.8" style="enable-background:new 0 0 402.2 499.8;" xml:space="preserve">
<style type="text/css">
	.st0{fill:#E93112;}
	.st1{fill:#FFFFFF;}
</style>
<g>
	<g>
		<path d="M12.7,14.8l0,2c0,2-1.3,198.1-0.6,260.4c0.2,12.8,2.8,25.3,7.8,37.1c18.3,42.8,41.3,73.8,72.4,97.3
			c10.6,8,22.1,15.2,35,21.8c4.3,2.2,8.7,4.3,13.3,6.4c-3.6-2.9-7.2-6.1-10.9-9.5c-0.1-0.1-0.2-0.2-0.3-0.3
			c-4.2-2.1-8.2-4.3-12.1-6.6c-43.8-25.2-72-59.7-93.7-110.6c-4.8-11.3-7.3-23.2-7.5-35.5c-0.8-58.9,0.4-237.5,0.5-258.4h369.6
			v276.6c-0.5,2.6-7.2,34-31.3,69c-12.4,17.9-30.8,38.7-57.4,56.8c-4,2.7-8.2,5.4-12.6,8c-0.2,0.1-0.3,0.3-0.4,0.4
			c-4.2,4.1-8.5,7.9-12.8,11.3c5.3-2.6,10.4-5.4,15.4-8.3c5.5-3.2,10.8-6.7,16-10.3c21.6-15.2,40.1-33.9,55.1-55.6
			c25.5-37,31.9-70.4,32-70.7l0-281.1H12.7z"/>
		<g>
			<path class="st0" d="M327.4,331.5c-3.4,5.4-3.3,8.3-3.3,13.7v1.6c0,8.7-7,50.6-39.1,82.3c-0.2,0.1-0.3,0.3-0.4,0.4
				c-4.2,4.1-8.5,7.9-12.8,11.3C253,456,234.4,464.8,221.3,471c-7.3,3.5-12.8,6.1-16.3,8.7c-3.5-2.8-8.6-5.4-15.5-8.9
				c-12-6.1-29.3-14.9-48.8-31.1c-3.6-2.9-7.2-6.1-10.9-9.5c-0.1-0.1-0.2-0.2-0.3-0.3c-35.2-33.1-37.5-61.1-37.5-61.4l-4.8-21.1
				l2.1-6.1l-7.1-13.7l5.1-2.7c2.7,5.1,6,10.7,10,16.5c16.1,23.5,47.1,56.1,103.7,78.7l4.4,4.4c0.6,0.6,1.4,0.7,2.2,0.4l0,0
				c57-23.5,88.5-57,104.9-81.1c5.1-7.4,9-14.4,12.1-20.6l4.3,3.9C328.9,327.1,329.4,328.4,327.4,331.5z"/>
		</g>
	</g>
	<g>
		<g>
			<path d="M75.5,106v188l0,0.4c0.1,0.6,2.2,11.2,9.9,26.7c0.6,1.2-0.4,2.6,0.3,3.8c2.7,5.1,7,12.4,11,18.2
				c16.1,23.5,50.6,57.1,107.2,79.7c0.5,0.2-1.9-2.5-1.3-2.3l0.8,0.3l0.8-0.3c0.1,0,0.1-0.1,0.2-0.1c27.2-11.5,50.8-26.1,70.4-43.2
				c26.1-22.8,45-50.3,56.3-81.6l0.1-0.3V106H75.5z M100.7,339.1c-16.4-23.9-20.8-43.3-21.2-45.3V110h247.6v184.6
				c-19.4,54-61.1,95.1-123.8,121.9C147.2,394.3,116.6,362.2,100.7,339.1z"/>
		</g>
	</g>
	<g>
		<g>
			<path d="M329.1,108h3.6v188c0,0-16.5,81.7-125.9,126.8c-3.8-3.8-3.8-3.8-3.8-3.8s94.4-31.8,126.2-124.1
				C329.1,209.8,329.1,108,329.1,108z"/>
		</g>
		<g>
			<path d="M327.1,106v188.6c-16.3,47-49.2,77.8-74,95.3c-27,19.1-50.5,27.1-50.8,27.2l-3.1,1l1.7,1.7l4.4,4.4
				c0.6,0.6,1.4,0.7,2.2,0.4l0,0c57-23.5,88.5-57,104.9-81.1c5.1-7.4,9-14.4,12.1-20.6c0.6-1.3,1.3-2.5,1.8-3.8
				c6.3-13.4,8.2-22.3,8.3-22.9l0-190.4H327.1z M255.2,393.2c24.9-17.6,57.8-48.2,74.7-94.8c-1.8,6.4-7.3,23.1-20.9,43
				c-16,23.4-46.6,56-101.9,79.1l-0.7-0.7C213.8,417,233.4,408.7,255.2,393.2z"/>
		</g>
	</g>
	<g>
		<g>
			<path class="st0" d="M48.2,83.6h21.1v10.1H31.2V39.5h17V83.6z"/>
		</g>
		<g>
			<path class="st0" d="M90.8,93.6V39.5h42.6v10.1h-25.8v11.7h19.1v10.1h-19.1v12.2h26v10.1H90.8z M105.6,35.5l7.2-11.4h17.9
				l-10.9,11.4H105.6z"/>
		</g>
		<g>
			<path class="st0" d="M187.4,39.5v10.1H170v44.1h-17V49.5h-17.4V39.5H187.4z"/>
		</g>
		<g>
			<path class="st0" d="M183.9,66.3c0-18.3,12.1-27.9,30.6-27.9c19.1,0,30.6,9.6,30.6,27.9c0,18.2-12.1,28.4-30.6,28.4
				C195.4,94.7,183.9,84.6,183.9,66.3z M227,66.3c0-11.7-4.3-17.8-12.5-17.8c-8.2,0-12.5,6.4-12.5,17.8c0,11.5,4.3,18.4,12.5,18.4
				C222.6,84.7,227,78,227,66.3z"/>
		</g>
		<g>
			<path class="st0" d="M252.6,93.6V39.5h17v54.2H252.6z"/>
		</g>
		<g>
			<path class="st0" d="M301.3,83.6h21.1v10.1h-38.1V39.5h17V83.6z"/>
		</g>
		<g>
			<path class="st0" d="M331,93.6V39.5h42.6v10.1h-25.8v11.7h19.1v10.1h-19.1v12.2h26v10.1H331z"/>
		</g>
	</g>
	<g>
		<g>
			<path d="M330.8,333.6c-2.8,4.4-2.7,6.4-2.7,11.5v1.6c0,8.1-5.7,43.6-30.5,74.4c-3.1,3.8-6.5,7.6-10.2,11.3c0,0-0.1,0.1-0.2,0.1
				c-23.2,22.7-47.9,34.3-64.2,42c-7.8,3.7-13.9,6.6-16.7,9.2l-1.4,1.3l-1.3-1.3c-3-2.9-8.7-5.8-15.9-9.4
				c-14.4-7.3-36.1-18.4-60.3-41c-0.1-0.1-0.2-0.2-0.3-0.3c-3.6-3.3-6.8-6.6-9.7-9.8c-26.6-29-29.2-52-29.4-54.4L83,347l1.9-5.6
				l-7.1-13.7c-0.6-1.1-0.2-2.5,1-3.1l6.6-3.5l1.7-0.9l1.9,3.5l-1.8,1l-5.1,2.7l7.1,13.7l-2.1,6.1l4.8,21.1
				c0,0.3,2.3,28.3,37.5,61.4c0.1,0.1,0.2,0.2,0.3,0.3c3.7,3.4,7.3,6.6,10.9,9.5c19.5,16.1,36.8,24.9,48.8,31.1
				c6.9,3.5,12,6.1,15.5,8.9c3.5-2.6,9-5.2,16.3-8.7c13.1-6.2,31.8-15,50.5-30.1c4.3-3.4,8.5-7.2,12.8-11.3c0.1-0.1,0.3-0.3,0.4-0.4
				c32.1-31.7,39.1-73.6,39.1-82.3v-1.6c0-5.3-0.1-8.3,3.3-13.7c2-3.2,1.5-4.4,1.5-4.6l-4.3-3.9l-1.6-1.4l-0.4-0.4l1.3-1.5l1.3-1.5
				l1.1,1l5.2,4.7C332.2,324.5,334.7,327.3,330.8,333.6z"/>
		</g>
	</g>
	<g>
		<polygon class="st0" points="200.8,128.8 225.7,205.3 306.1,205.3 241,252.5 265.9,329 200.8,281.7 135.8,329 160.6,252.5 
			95.6,205.3 176,205.3 		"/>
	</g>
	<g>
		<path class="st0" d="M81.4,60.7c0,0,1.1-14.3,1.4-19.6c0.3-5.9-9.2-7.6-7.9,4.3c1.5,13.3,1.8,13,2,14.3
			C77.5,62.8,81.3,62.3,81.4,60.7z"/>
	</g>
	<g>
		<g>
			<path class="st0" d="M66.7,125.2h-4.4l-1-7.5c-0.1-0.5-0.1-1.1-0.2-1.8s-0.1-1.4-0.2-2.1c-0.1,0.7-0.3,1.6-0.7,2.7
				c-0.1,0.2-0.1,0.4-0.2,0.5l-2.4,8.1h-3.1l-2.4-8.1c0-0.1-0.1-0.3-0.1-0.5c-0.3-1.1-0.5-2-0.7-2.7c0,0.7-0.1,1.3-0.2,1.9
				c-0.1,0.6-0.1,1.3-0.2,1.9l-1,7.5h-4.4l2.7-17.3H53l2.6,8.9c0,0.1,0,0.2,0.1,0.3c0.2,0.8,0.4,1.5,0.5,2c0-0.3,0.1-0.6,0.2-1
				c0.1-0.4,0.2-0.8,0.4-1.4l2.6-8.9H64L66.7,125.2z"/>
		</g>
		<g>
			<path class="st0" d="M65.4,136.9c0,1.2-0.2,2.4-0.7,3.5c-0.5,1.1-1.1,2.1-2,2.9c-0.9,0.9-1.9,1.5-3,2c-1.1,0.5-2.3,0.7-3.5,0.7
				c-1.2,0-2.4-0.2-3.6-0.7c-1.1-0.5-2.1-1.1-3-2c-0.9-0.9-1.6-1.8-2-2.9c-0.5-1.1-0.7-2.3-0.7-3.5c0-1.2,0.2-2.4,0.7-3.5
				c0.5-1.1,1.1-2.1,2-2.9c0.9-0.9,1.9-1.5,3-2c1.1-0.5,2.3-0.7,3.6-0.7c1.2,0,2.4,0.2,3.6,0.7c1.1,0.5,2.1,1.1,3,2
				c0.9,0.9,1.5,1.8,2,2.9C65.2,134.5,65.4,135.7,65.4,136.9z M56.2,142c1.3,0,2.4-0.5,3.2-1.4c0.9-1,1.3-2.2,1.3-3.6
				c0-1.5-0.4-2.7-1.3-3.6c-0.9-1-1.9-1.5-3.2-1.5c-1.3,0-2.4,0.5-3.3,1.5s-1.3,2.2-1.3,3.6c0,1.5,0.4,2.7,1.3,3.7
				C53.8,141.6,54.9,142,56.2,142z"/>
		</g>
		<g>
			<path class="st0" d="M50.3,165.9v-17.3h4.9c1.9,0,3.3,0.1,4,0.3c0.8,0.2,1.4,0.5,2,0.9c0.6,0.5,1.1,1.1,1.4,1.8
				c0.3,0.7,0.5,1.5,0.5,2.4c0,1.3-0.3,2.4-1,3.3c-0.7,0.8-1.6,1.4-2.9,1.7l4.7,7h-5.3l-4-6.8v6.8H50.3z M54.7,156.8h0.9
				c1,0,1.8-0.2,2.2-0.5c0.5-0.3,0.7-0.9,0.7-1.6c0-0.9-0.2-1.5-0.7-1.9s-1.2-0.6-2.2-0.6h-0.9V156.8z"/>
		</g>
		<g>
			<path class="st0" d="M47.7,186.3V169h4.6l6.5,8.9c0.1,0.2,0.3,0.5,0.6,1.1c0.3,0.5,0.6,1.2,1,2c-0.1-0.7-0.2-1.4-0.2-1.9
				s-0.1-1.1-0.1-1.5V169h4.5v17.3h-4.5l-6.5-9c-0.1-0.2-0.3-0.5-0.6-1.1c-0.3-0.5-0.6-1.2-0.9-1.9c0.1,0.7,0.2,1.4,0.2,1.9
				c0,0.6,0.1,1.1,0.1,1.5v8.6H47.7z"/>
		</g>
		<g>
			<path class="st0" d="M51.2,206.7v-17.3h10.6v3.8h-6v3h5.7v3.7h-5.7v2.9h6v3.9H51.2z"/>
		</g>
		<g>
			<path class="st0" d="M53.8,219.8c0-0.7,0.2-1.2,0.7-1.7c0.5-0.5,1-0.7,1.7-0.7c0.7,0,1.3,0.2,1.7,0.7c0.5,0.5,0.7,1,0.7,1.7
				s-0.2,1.2-0.7,1.7c-0.5,0.5-1,0.7-1.7,0.7c-0.7,0-1.2-0.2-1.7-0.7C54,221,53.8,220.4,53.8,219.8z"/>
		</g>
		<g>
			<path class="st0" d="M47.2,247.4l6-17.3h5.9l6,17.3h-4.7l-0.9-3.1h-6.7l-0.9,3.1H47.2z M52.8,224.1h3.3l2.2,4.1h-1.8L52.8,224.1z
				 M53.9,240.9h4.7l-1.8-5.7c-0.1-0.2-0.1-0.5-0.2-0.8c-0.1-0.4-0.2-0.9-0.4-1.5c-0.1,0.4-0.2,0.8-0.3,1.2s-0.2,0.8-0.3,1.1
				L53.9,240.9z"/>
		</g>
		<g>
			<path class="st0" d="M53.8,260.5c0-0.7,0.2-1.2,0.7-1.7c0.5-0.5,1-0.7,1.7-0.7c0.7,0,1.3,0.2,1.7,0.7c0.5,0.5,0.7,1,0.7,1.7
				s-0.2,1.2-0.7,1.7c-0.5,0.5-1,0.7-1.7,0.7c-0.7,0-1.2-0.2-1.7-0.7C54,261.7,53.8,261.2,53.8,260.5z"/>
		</g>
		<g>
			<path class="st0" d="M51.6,287.7v-17.3h4.7v13.3h5.9v4H51.6z"/>
		</g>
		<g>
			<path class="st0" d="M51.2,310v-17.3h10.6v3.8h-6v3h5.7v3.7h-5.7v2.9h6v3.9H51.2z"/>
		</g>
		<g>
			<path class="st0" d="M47.2,330.8l6-17.3h5.9l6,17.3h-4.7l-0.9-3.1h-6.7l-0.9,3.1H47.2z M53.9,324.3h4.7l-1.8-5.7
				c-0.1-0.2-0.1-0.5-0.2-0.8s-0.2-0.9-0.4-1.5c-0.1,0.4-0.2,0.8-0.3,1.2s-0.2,0.8-0.3,1.1L53.9,324.3z"/>
		</g>
		<g>
			<path class="st0" d="M48.5,333.8h4.7v8.4c0,1.2,0,2.1,0.1,2.7c0.1,0.5,0.2,1,0.3,1.4c0.2,0.4,0.5,0.8,0.9,1
				c0.5,0.2,1,0.3,1.6,0.3c0.6,0,1.2-0.1,1.6-0.3s0.8-0.6,1-1c0.1-0.4,0.3-0.8,0.3-1.4c0.1-0.5,0.1-1.4,0.1-2.7v-1.2v-7.2h4.7v9.2
				c0,1.9-0.1,3.3-0.3,4.2s-0.6,1.7-1.2,2.3c-0.6,0.7-1.4,1.2-2.4,1.6c-1,0.4-2.3,0.5-3.8,0.5c-1.5,0-2.7-0.2-3.8-0.5
				c-1-0.4-1.8-0.9-2.4-1.6c-0.5-0.6-0.9-1.4-1.2-2.3s-0.3-2.3-0.3-4.2v-1.8V333.8z"/>
		</g>
	</g>
	<g>
		<g>
			<path class="st0" d="M353.6,118.8v-3.6h9.3c0,0.1,0,0.2,0,0.4c0,0.1,0,0.4,0,0.6c0,3-0.8,5.3-2.4,6.9c-1.6,1.6-3.8,2.5-6.6,2.5
				c-1.4,0-2.7-0.2-3.7-0.6c-1.1-0.4-2.1-1.1-2.9-1.9c-0.8-0.8-1.5-1.8-1.9-2.9c-0.5-1.1-0.7-2.3-0.7-3.6c0-1.3,0.2-2.5,0.7-3.6
				c0.4-1.1,1.1-2.1,2-2.9c0.9-0.8,1.9-1.5,3-1.9c1.1-0.4,2.3-0.7,3.6-0.7c1.7,0,3.2,0.3,4.5,1s2.4,1.7,3.3,3l-4.1,2
				c-0.5-0.7-1-1.2-1.7-1.5s-1.3-0.5-2.1-0.5c-1.4,0-2.5,0.5-3.3,1.4c-0.8,0.9-1.2,2.2-1.2,3.9c0,1.6,0.4,2.9,1.2,3.9
				s1.9,1.4,3.3,1.4c1.2,0,2.2-0.3,3-0.9c0.8-0.6,1.3-1.4,1.4-2.4H353.6z"/>
		</g>
		<g>
			<path class="st0" d="M346,131.2h4.7v8.4c0,1.2,0,2.1,0.1,2.7c0.1,0.5,0.2,1,0.3,1.4c0.2,0.4,0.5,0.8,0.9,1c0.5,0.2,1,0.3,1.6,0.3
				c0.6,0,1.2-0.1,1.6-0.3s0.8-0.6,1-1c0.1-0.4,0.3-0.8,0.3-1.4c0.1-0.5,0.1-1.4,0.1-2.7v-1.2v-7.2h4.7v9.2c0,1.9-0.1,3.3-0.3,4.2
				s-0.6,1.7-1.2,2.3c-0.6,0.7-1.4,1.2-2.4,1.6c-1,0.4-2.3,0.5-3.8,0.5c-1.5,0-2.7-0.2-3.8-0.5c-1-0.4-1.8-0.9-2.4-1.6
				c-0.5-0.6-0.9-1.4-1.2-2.3s-0.3-2.3-0.3-4.2v-1.8V131.2z"/>
		</g>
		<g>
			<path class="st0" d="M344.8,171.8l6-17.3h5.9l6,17.3H358l-0.9-3.1h-6.7l-0.9,3.1H344.8z M351.4,165.3h4.7l-1.8-5.7
				c-0.1-0.2-0.1-0.5-0.2-0.8c-0.1-0.4-0.2-0.9-0.4-1.5c-0.1,0.4-0.2,0.8-0.3,1.2s-0.2,0.8-0.3,1.1L351.4,165.3z"/>
		</g>
		<g>
			<path class="st0" d="M346.3,195v-17.3h3.6c2.7,0,4.6,0.1,5.7,0.4s2.1,0.7,2.9,1.3c1.1,0.8,1.9,1.7,2.5,2.9
				c0.6,1.2,0.9,2.6,0.9,4.1c0,1.5-0.3,2.9-0.9,4.1s-1.4,2.2-2.5,2.9c-0.8,0.6-1.8,1-2.9,1.2c-1.1,0.2-2.7,0.4-5,0.4h-0.8H346.3z
				 M350.9,191.2h0.8c1.9,0,3.2-0.4,4.1-1.1c0.9-0.8,1.3-2,1.3-3.6c0-1.7-0.4-2.9-1.3-3.6c-0.9-0.8-2.2-1.2-4.1-1.2h-0.8V191.2z"/>
		</g>
		<g>
			<path class="st0" d="M348.7,218.3V201h10.6v3.8h-6v3h5.7v3.7h-5.7v2.9h6v3.9H348.7z"/>
		</g>
		<g>
			<path class="st0" d="M349.1,241.6v-17.3h4.7v13.3h5.9v4H349.1z"/>
		</g>
		<g>
			<path class="st0" d="M363,256.2c0,1.2-0.2,2.4-0.7,3.5c-0.5,1.1-1.1,2.1-2,2.9c-0.9,0.9-1.9,1.5-3,2c-1.1,0.5-2.3,0.7-3.5,0.7
				c-1.2,0-2.4-0.2-3.6-0.7c-1.1-0.5-2.1-1.1-3-2c-0.9-0.9-1.6-1.8-2-2.9c-0.5-1.1-0.7-2.3-0.7-3.5c0-1.2,0.2-2.4,0.7-3.5
				c0.5-1.1,1.1-2.1,2-2.9c0.9-0.9,1.9-1.5,3-2c1.1-0.5,2.3-0.7,3.6-0.7c1.2,0,2.4,0.2,3.6,0.7c1.1,0.5,2.1,1.1,3,2
				c0.9,0.9,1.5,1.8,2,2.9C362.7,253.8,363,255,363,256.2z M353.7,261.3c1.3,0,2.4-0.5,3.2-1.4c0.9-1,1.3-2.2,1.3-3.6
				c0-1.5-0.4-2.7-1.3-3.6c-0.9-1-1.9-1.5-3.2-1.5c-1.3,0-2.4,0.5-3.3,1.5s-1.3,2.2-1.3,3.6c0,1.5,0.4,2.7,1.3,3.7
				C351.3,260.8,352.4,261.3,353.7,261.3z"/>
		</g>
		<g>
			<path class="st0" d="M346,270.8h4.7v8.4c0,1.2,0,2.1,0.1,2.7c0.1,0.5,0.2,1,0.3,1.4c0.2,0.4,0.5,0.8,0.9,1c0.5,0.2,1,0.3,1.6,0.3
				c0.6,0,1.2-0.1,1.6-0.3s0.8-0.6,1-1c0.1-0.4,0.3-0.8,0.3-1.4c0.1-0.5,0.1-1.4,0.1-2.7v-1.2v-7.2h4.7v9.2c0,1.9-0.1,3.3-0.3,4.2
				c-0.2,0.9-0.6,1.7-1.2,2.3c-0.6,0.7-1.4,1.2-2.4,1.6c-1,0.4-2.3,0.5-3.8,0.5c-1.5,0-2.7-0.2-3.8-0.5c-1-0.4-1.8-0.9-2.4-1.6
				c-0.5-0.6-0.9-1.4-1.2-2.3c-0.2-0.9-0.3-2.3-0.3-4.2v-1.8V270.8z"/>
		</g>
		<g>
			<path class="st0" d="M352.3,311.4h-4.4v-17.3h4.9c1.9,0,3.3,0.1,4.1,0.3c0.8,0.2,1.4,0.5,2,1c0.6,0.5,1.1,1.2,1.5,2
				c0.3,0.8,0.5,1.7,0.5,2.6c0,1-0.2,1.9-0.5,2.7c-0.3,0.8-0.8,1.4-1.5,1.9c-0.5,0.4-1.1,0.7-1.7,0.8s-1.7,0.2-3.2,0.2h-0.8h-0.9
				V311.4z M352.3,301.9h0.9c1.1,0,1.9-0.2,2.4-0.5c0.5-0.3,0.7-0.8,0.7-1.6c0-0.7-0.2-1.2-0.7-1.6c-0.4-0.3-1.2-0.5-2.3-0.5h-0.9
				V301.9z"/>
		</g>
		<g>
			<path class="st0" d="M348.7,334.7v-17.3h10.6v3.8h-6v3h5.7v3.7h-5.7v2.9h6v3.9H348.7z"/>
		</g>
	</g>
	<g>
		<g>
			<path class="st1" d="M111.7,399.3c-0.2,0.2-0.4,0.2-0.6,0.1c-0.3-0.1-0.5-0.3-0.7-0.6c-2-3.2-3-4.8-5-8.2c-0.2-0.3-0.3-0.6-0.3-1
				c0-0.3,0-0.6,0.2-0.7c2.4-2.2,3.6-3.2,6-5.3c-0.8-1.2-1.6-2.4-2.4-3.8c-0.8-1.3-1.7-2.6-2.5-3.8c-0.5,0.3-1.2,0.5-2,0.8
				c-0.8,0.3-1.6,0.4-2.5,0.4c-0.9,0-1.8-0.3-2.7-0.8c-0.9-0.5-1.8-1.4-2.7-2.7c-0.5-0.7-0.8-1.5-1.1-2.4c-0.3-0.9-0.3-1.7-0.3-2.4
				c0.1-0.8,0.4-1.3,0.9-1.7c0.5-0.4,1.2-0.4,2.2-0.2c1.3,0.3,2.7,1.2,4.1,2.7c1.4,1.4,2.7,3.1,4,4.8c0.8-0.4,1.7-0.9,2.5-1.4
				c0.9-0.5,1.8-1,2.8-1.4c1-0.4,2-0.7,3.1-0.8c1.1-0.1,2.3-0.1,3.5,0.2c1.1,0.3,2.1,0.8,3.2,1.6c1.1,0.8,2.1,1.8,2.9,3.1
				c0.9,1.4,1.5,2.6,1.7,3.8c0.2,1.2,0.1,2.2-0.1,3.2c-0.3,1-0.7,1.9-1.3,2.7c-0.6,0.8-1.2,1.5-1.8,2.2
				C118.4,392.5,116.2,394.7,111.7,399.3z M101.8,376c0.6,0,1.3-0.1,1.9-0.3c0.6-0.2,1.2-0.4,1.9-0.7c-1.2-1.6-2.3-3-3.5-4.2
				c-1.2-1.2-2.3-1.9-3.5-2.2c-0.3-0.1-0.7-0.1-1.1,0c-0.4,0.1-0.8,0.3-1,0.7s-0.4,0.8-0.3,1.5c0,0.6,0.4,1.4,0.9,2.3
				c0.5,0.8,1.2,1.5,2,2.1C99.8,375.7,100.8,376,101.8,376z M119.7,376c0.4-0.4,0.6-0.7,0.6-1c0.1-0.3,0-0.7-0.1-1
				c-0.2-0.3-0.4-0.6-0.7-0.8c-0.3-0.2-0.7-0.4-1-0.6c-1.1-0.4-2.1-0.5-3.2-0.4c-1,0.1-2,0.4-3,0.8c-1,0.4-1.9,0.9-2.8,1.4
				c-0.9,0.5-1.7,1-2.5,1.4c0.8,1.2,1.7,2.5,2.5,3.7c0.8,1.3,1.6,2.5,2.3,3.7C115,380.5,116.5,379.1,119.7,376z"/>
			<path class="st1" d="M118,409c-0.2,0.2-0.4,0.1-0.7-0.3c-1.2-1.6-1.8-2.5-3.1-4.2c-0.3-0.4-0.3-0.7-0.1-0.8
				c2.3-2.5,3.5-3.8,5.7-6.2c0.4-0.5,0.5-1,0.2-1.4c-0.3-0.4-0.7-0.6-1.2-0.6c-0.2,0-0.3,0.1-0.5,0.1c-0.2,0-0.3,0.1-0.5,0.2
				c-0.2,0.1-0.3,0.1-0.5,0c-0.2-0.1-0.3-0.2-0.4-0.5c-0.1-0.3-0.1-0.5,0.1-0.6c0.2-0.1,0.3-0.1,0.4-0.2c1-0.2,1.9-0.1,2.8,0.4
				s1.8,1.3,2.7,2.5c0.5,0.6,0.8,1.2,1,1.7c0.2,0.5,0.3,1,0.3,1.5c0.4,0.1,1,0.4,1.7,0.9c0.7,0.5,1.5,1.2,2.1,2.1
				c0.4,0.6,0.7,1.2,0.9,1.7c0.2,0.5,0.2,1,0.2,1.5c-0.1,0.5-0.2,0.9-0.4,1.3c-0.2,0.4-0.5,0.8-0.8,1.2c-0.6,0.7-1.2,1.5-1.8,2.3
				c-0.6,0.8-1.3,1.6-1.9,2.3c-0.4,0.5-0.4,0.8-0.1,1c0.3,0.2,0.7,0.3,1.2,0.3c0.5,0,1.1-0.1,1.7-0.2c0.6-0.1,1-0.3,1.1-0.4
				c0.1-0.1,0.3,0,0.4,0c0.1,0.1,0.2,0.2,0.3,0.3c0.1,0.1,0.2,0.3,0.1,0.5c0,0.2-0.1,0.3-0.2,0.3c-0.5,0.3-1.1,0.5-1.8,0.7
				c-0.7,0.2-1.3,0.2-2,0.1c-0.7-0.1-1.4-0.4-2.1-0.8c-0.7-0.5-1.4-1.2-2-2.1c-0.4-0.7-0.8-1.3-0.9-1.8c-0.2-0.5-0.2-1-0.1-1.5
				s0.2-0.9,0.4-1.3c0.2-0.4,0.5-0.8,0.8-1.1c0.6-0.7,1.2-1.4,1.9-2.2c0.7-0.8,1.3-1.5,1.9-2.2c0.3-0.4,0.4-0.8,0.2-1.3
				c-0.2-0.5-0.5-0.8-0.9-1c0,0.5-0.2,0.9-0.4,1.3c-0.2,0.4-0.5,0.8-0.8,1.1C121,405.5,120.1,406.7,118,409z"/>
			<path class="st1" d="M138,413.9c1,1.2,1.8,2.6,2.3,4.1c0.5,1.5,0.8,3,0.7,4.3c-0.1,1.4-0.5,2.5-1.3,3.4c-0.8,0.9-2,1.3-3.7,1.2
				c0.4,0.8,1,1.5,1.7,2.1c0.7,0.6,1.5,1.1,2.6,1.5c0.4,0.2,0.6,0.5,0.6,0.9c0,0.2-0.1,0.4-0.2,0.4c-0.2,0.1-0.3,0.1-0.5,0
				c-1.5-0.5-2.7-1.3-3.6-2.3c-0.9-1-1.6-2-2.1-3.1c-0.8-0.1-1.7-0.5-2.5-1.2c-0.8-0.7-1.6-1.4-2.2-2.2c-0.5-0.8-0.8-1.6-0.8-2.5
				c0-0.9,0.3-1.4,1-1.7c0.6-0.2,1.2-0.2,1.8,0.2c0.6,0.3,1.2,1,1.7,1.6c0.5,0.7,1.2,0.9,1.6,0.7c0.5-0.3,0.8-0.7,1.2-1.5
				c0.3-0.7,0.5-1.6,0.7-2.5c0.2-0.9,0.3-1.7,0.3-2.4c-0.9,0.7-1.9,1.3-3,1.9c-1.1,0.6-2.4,1-3.7,1.2c-1.3,0.2-2.6,0.1-4-0.4
				c-1.4-0.4-2.7-1.3-4-2.7c-0.1-0.2-0.2-0.4-0.3-0.6c-0.1-0.2,0-0.4,0.1-0.6c0.1-0.1,0.2-0.2,0.4-0.2s0.3,0.1,0.5,0.3
				c1,1.1,2.2,1.8,3.4,2.2c1.2,0.4,2.4,0.4,3.6,0.3c1.2-0.2,2.3-0.5,3.3-1c1-0.5,2-1.1,2.8-1.8c-0.3-0.3-0.6-0.8-1-1.5
				c-0.4-0.7-0.7-1.4-0.8-2.2c-0.1-0.4-0.1-0.8,0-1.2c0.1-0.4,0.2-0.7,0.4-0.9c0.2-0.2,0.5-0.4,0.8-0.4c0.3,0,0.7,0.1,1.2,0.3
				c0.6,0.3,1,0.8,1.4,1.3c0.3,0.5,0.5,1.1,0.6,1.7c0.1,0.6,0.1,1.2-0.1,1.8C138.5,413,138.3,413.5,138,413.9z M136.9,412.5
				c0.4-0.6,0.6-1.3,0.4-2.1c-0.1-0.4-0.3-0.7-0.5-1c-0.2-0.3-0.4-0.4-0.7-0.5c-0.2-0.1-0.4-0.1-0.5,0.1c-0.1,0.1-0.2,0.4-0.1,0.9
				c0.1,0.4,0.2,0.8,0.5,1.3C136.3,411.6,136.6,412,136.9,412.5z M133.6,424.8c-0.2-0.5-0.4-1-0.6-1.6c-0.2-0.5-0.4-1.1-0.6-1.5
				c-0.2-0.4-0.4-0.8-0.6-1c-0.2-0.2-0.5-0.4-0.7-0.4c-0.3-0.1-0.5-0.1-0.7,0c-0.2,0.1-0.2,0.3-0.3,0.5c0,0.2,0,0.5,0.1,0.8
				c0.1,0.3,0.2,0.5,0.3,0.8C131.4,423.5,132.4,424.3,133.6,424.8z"/>
			<path class="st1" d="M156.2,427.3c0.3,0.2,0.4,0.4,0.3,0.7c-2.1,3.9-3.2,5.9-5.3,9.7c-0.1,0.1-0.1,0.2-0.2,0.4
				c-0.1,0.1-0.1,0.2-0.1,0.3c0,0.1,0.1,0.2,0.2,0.2c0.1,0.1,0.3,0.1,0.6,0.1c0.3,0,0.6-0.1,0.9-0.2c0.3-0.1,0.5-0.2,0.8-0.3
				c0.1-0.1,0.3-0.1,0.4,0c0.1,0.1,0.3,0.2,0.3,0.3c0.1,0.1,0.1,0.3,0.1,0.4c-0.1,0.1-0.1,0.2-0.2,0.3c-1,0.4-2,0.6-2.8,0.4
				c-0.9-0.2-1.8-0.5-2.7-1.2c-0.7-0.4-1-0.7-1.7-1.1c-0.1-0.1-0.2-0.2-0.4-0.2c-0.2-0.1-0.3-0.2-0.4-0.3c-0.1-0.1-0.2-0.2-0.3-0.3
				c-0.1-0.1-0.1-0.2,0-0.3c0,0,0-0.1,0.1-0.1c-1.1-0.2-2.2-0.8-3.3-1.7c-1-0.8-1.7-1.7-2.1-2.6c-0.4-0.9-0.6-1.8-0.6-2.7
				c0-0.9,0.2-1.7,0.6-2.5c0.4-0.8,0.9-1.5,1.6-2.2c0.6-0.6,1.4-1.2,2.2-1.5c0.9-0.3,1.8-0.5,2.7-0.5c0.9,0,1.8,0.3,2.8,0.7
				c0.9,0.5,1.7,1.2,2.4,2.1c0.1-0.3,0.4-0.3,0.7-0.1C154,426,154.7,426.4,156.2,427.3z M150.9,426.9c0.2-0.3,0.2-0.6,0.1-0.9
				c-0.1-0.3-0.3-0.5-0.6-0.7c-0.3-0.2-0.5-0.3-0.8-0.3c-0.3,0-0.5,0.1-0.7,0.4c-1.6,2.7-2.4,4-4,6.6c-0.2,0.3-0.2,0.6-0.1,0.9
				c0.1,0.3,0.3,0.6,0.6,0.7c0.3,0.2,0.6,0.3,0.9,0.3c0.3,0,0.5-0.2,0.7-0.5C148.5,431,149.3,429.6,150.9,426.9z"/>
			<path class="st1" d="M159.6,444.2c-0.1,0.3-0.4,0.3-0.8,0.1c-1.6-0.8-2.4-1.1-4-2c-0.3-0.2-0.4-0.4-0.3-0.7
				c1.9-3.5,2.9-5.3,4.7-9c0.3-0.7,0.3-1.2,0-1.4c-0.3-0.3-0.8-0.2-1.3,0.1c-0.2,0.1-0.3,0.3-0.5,0.4c-0.2,0.1-0.3,0.3-0.5,0.4
				c-0.2,0.2-0.3,0.3-0.5,0.3c-0.2,0-0.3-0.1-0.5-0.2c-0.2-0.2-0.2-0.4,0-0.6c0.1-0.2,0.3-0.3,0.4-0.4c1-0.8,1.9-1.2,2.9-1.3
				c1-0.1,2,0.1,3.2,0.7c0.6,0.3,1,0.6,1.3,1c0.3,0.4,0.5,0.8,0.6,1.2c0.4-0.1,1.1-0.2,1.9-0.2c0.8,0,1.7,0.3,2.4,0.7
				c0.5,0.3,0.9,0.7,1.2,1.1c0.3,0.4,0.4,0.8,0.4,1.3c0,0.5,0,0.9-0.2,1.4c-0.1,0.5-0.3,1-0.5,1.5c-0.4,1-0.9,2-1.3,3.1
				c-0.5,1-0.9,2.1-1.4,3.1c-0.3,0.6-0.2,0.9,0.1,0.9c0.3,0,0.7-0.1,1.3-0.4c0.5-0.3,1-0.6,1.6-1c0.5-0.4,0.9-0.7,1-0.9
				c0.1-0.1,0.2-0.2,0.4-0.2c0.1,0,0.3,0,0.4,0.1c0.1,0.1,0.2,0.2,0.2,0.3c0,0.1,0,0.3-0.1,0.4c-0.4,0.5-1,1.1-1.6,1.5
				c-0.6,0.5-1.2,0.9-1.9,1.1c-0.7,0.3-1.4,0.4-2.2,0.4c-0.8,0-1.6-0.3-2.4-0.8c-0.6-0.3-1-0.7-1.3-1.1c-0.3-0.4-0.4-0.8-0.4-1.2
				c0-0.4,0-0.9,0.2-1.3c0.2-0.5,0.4-0.9,0.6-1.4c0.5-1,1-2,1.5-3.1c0.5-1.1,1-2.1,1.5-3.1c0.3-0.6,0.2-1-0.1-1.3
				c-0.3-0.3-0.7-0.5-1.1-0.4c0,0.5,0,0.9-0.2,1.4c-0.2,0.5-0.3,1-0.6,1.4C162,439.5,161.2,441.1,159.6,444.2z"/>
			<path class="st1" d="M179.3,439c0.1-0.1,0.3-0.2,0.6-0.3c0.3-0.1,0.6-0.2,0.9-0.3c0.4-0.1,0.8-0.1,1.2,0c0.4,0,0.9,0.1,1.3,0.3
				c0.9,0.4,1.4,0.9,1.6,1.7c0.4-0.2,0.9-0.4,1.6-0.6c0.7-0.2,1.5-0.1,2.3,0.2c0.5,0.2,0.9,0.4,1.2,0.7c0.3,0.3,0.4,0.7,0.5,1.1
				c0.1,0.4,0.1,0.9,0,1.4c-0.1,0.5-0.2,1.1-0.4,1.7c-0.8,2.7-1.2,4-2,6.6c-0.1,0.5-0.1,0.7,0.1,0.8c0.2,0,0.4,0,0.7-0.2
				c0.3-0.2,0.6-0.4,0.9-0.7c0.3-0.3,0.5-0.5,0.7-0.7c0.2-0.3,0.4-0.5,0.6-0.8c0.2-0.2,0.4-0.5,0.5-0.7c0.1-0.2,0.2-0.3,0.3-0.3
				c0.1,0,0.2,0,0.4,0.1c0.1,0.1,0.2,0.1,0.2,0.3c0,0.1,0,0.3-0.1,0.4c-0.5,0.8-1.1,1.5-1.8,2.3c-0.7,0.8-1.5,1.3-2.4,1.7
				c-0.4,0.2-0.9,0.2-1.5,0.2c-0.5,0-1-0.1-1.5-0.3c-0.6-0.2-1-0.4-1.3-0.8c-0.3-0.3-0.4-0.7-0.5-1.1c-0.1-0.4-0.1-0.9,0-1.3
				c0.1-0.5,0.2-1,0.4-1.5c0.4-1.1,0.7-2.2,1.1-3.3c0.4-1.1,0.7-2.3,1.1-3.4c0.2-0.5,0.2-0.9-0.1-1.2c-0.2-0.3-0.6-0.3-1-0.1
				c0.1,0.4,0,0.9,0,1.3c-0.1,0.5-0.2,1-0.4,1.5c-1.1,3.5-1.7,5.2-2.9,8.6c-0.1,0.3-0.3,0.4-0.7,0.3c-1.5-0.4-2.3-0.7-3.8-1.1
				c-0.1,0-0.3-0.1-0.3-0.2c-0.1-0.1-0.1-0.2,0-0.4c1.5-3.9,2.2-6,3.7-10.1c0.2-0.6,0.1-1-0.2-1.2c-0.3-0.2-0.7-0.3-1-0.1
				c0,0.8-0.2,1.7-0.5,2.7c-1.2,3.5-1.9,5.2-3.1,8.5c-0.1,0.3-0.3,0.3-0.7,0.2c-1.5-0.5-2.3-0.8-3.9-1.4c-0.4-0.1-0.5-0.3-0.4-0.5
				c1.6-3.7,2.3-5.7,3.9-9.6c0.3-0.7,0.2-1.2-0.1-1.3c-0.3-0.2-0.8,0-1.3,0.4c-0.2,0.1-0.3,0.3-0.5,0.4c-0.1,0.2-0.3,0.3-0.4,0.5
				c-0.2,0.2-0.3,0.3-0.4,0.4c-0.1,0.1-0.4,0-0.6-0.2c-0.2-0.1-0.2-0.3-0.1-0.5c0.1-0.2,0.2-0.3,0.4-0.5c1.5-1.8,3.4-2.3,5.7-1.6
				c0.5,0.2,1,0.4,1.3,0.8C179,437.9,179.2,438.4,179.3,439z"/>
			<path class="st1" d="M208.6,455c-0.1,0.3-0.3,0.5-0.6,0.5c-1.5,0.1-2.2,0.1-3.7,0.2c-0.3,0-0.4-0.1-0.4-0.4c0.9-4,1.4-6,2.3-10.3
				c0.2-0.8,0.1-1.3-0.3-1.3c-0.3-0.1-0.7,0.2-1.1,0.8c-0.1,0.2-0.2,0.4-0.4,0.6c-0.1,0.2-0.2,0.4-0.3,0.7c-0.1,0.2-0.2,0.4-0.4,0.5
				c-0.1,0.1-0.3,0.1-0.5,0c-0.2-0.1-0.2-0.2-0.1-0.5c0.1-0.2,0.2-0.4,0.3-0.6c0.7-1.2,1.4-2.1,2.2-2.7c0.8-0.6,1.8-0.9,2.8-1
				c0.6,0,1,0,1.3,0.2c0.3,0.2,0.6,0.5,0.7,0.8c0.3-0.4,0.9-0.7,1.6-1.1c0.7-0.4,1.5-0.6,2.3-0.6c0.5,0,0.9,0.1,1.2,0.4
				c0.3,0.2,0.5,0.5,0.6,0.9c0.1,0.4,0.1,0.9,0.1,1.4c0,0.5-0.1,1.1-0.2,1.7c-0.2,1.1-0.4,2.3-0.6,3.4c-0.2,1.2-0.4,2.3-0.6,3.4
				c-0.1,0.7,0,0.9,0.3,0.8c0.3-0.2,0.6-0.5,1-1c0.4-0.5,0.8-1.1,1.2-1.7c0.4-0.6,0.6-1.1,0.7-1.4c0.1-0.1,0.2-0.3,0.3-0.4
				c0.1-0.1,0.3-0.1,0.4-0.1c0.1,0,0.2,0.1,0.3,0.2c0,0.1,0,0.3,0,0.4c-0.3,0.7-0.7,1.4-1.1,2.2c-0.4,0.7-0.9,1.4-1.5,2
				c-0.6,0.6-1.2,1.1-1.9,1.5c-0.7,0.4-1.4,0.5-2.2,0.5c-0.6,0-1-0.1-1.3-0.3c-0.3-0.2-0.5-0.5-0.6-0.9s-0.1-0.8-0.1-1.3
				c0-0.5,0.1-1,0.2-1.6c0.2-1.1,0.5-2.3,0.7-3.5c0.3-1.2,0.5-2.4,0.7-3.6c0.1-0.6,0-1-0.3-1.2c-0.3-0.1-0.7-0.1-1,0.2
				c0.1,0.4,0.2,0.9,0.1,1.4c0,0.5-0.1,1.1-0.2,1.6C209.7,449.7,209.3,451.5,208.6,455z"/>
			<path class="st1" d="M223.1,447c-0.1,0.5-0.1,1.2-0.2,1.9c0,0.7,0.1,1.3,0.2,1.8c0.2,0.5,0.5,0.8,0.9,0.8c0.4,0.1,1.1-0.3,1.9-1
				c0.7-0.6,1.2-1.4,1.7-2.2s0.8-1.7,1.1-2.6c0.3-0.9,0.5-1.8,0.6-2.7c0.1-0.9,0.1-1.7,0-2.4c-0.3,0.2-0.6,0.4-1,0.6
				c-0.4,0.2-0.8,0.3-1.1,0.3c-0.4,0-0.7,0-0.9-0.2c-0.3-0.1-0.4-0.4-0.4-0.8c0-0.6,0.2-1.2,0.8-1.8c0.5-0.5,1.1-0.8,1.7-0.8
				c0.8-0.1,1.4,0.3,1.7,1.2c0.3-0.3,0.5-0.6,0.7-1c0.2-0.3,0.3-0.7,0.4-1.1c0.1-0.2,0.2-0.3,0.3-0.4c0.1-0.1,0.2-0.2,0.4-0.2
				c0.3-0.1,0.4,0.1,0.3,0.5c-0.2,0.5-0.4,1.1-0.7,1.6c-0.3,0.5-0.7,1-1.1,1.4c0.1,0.8,0.1,1.6,0,2.6c-0.1,1-0.3,2-0.6,3
				c-0.3,1-0.7,2-1.2,3c-0.5,1-1.2,1.9-1.9,2.6c-0.6,0.6-1.3,1.1-2.1,1.4c-0.8,0.3-1.5,0.5-2.2,0.5c-1.2,0.1-2.2-0.3-2.9-1
				c-0.7-0.7-1.1-1.7-1.1-3c0-0.8,0.1-1.7,0.3-2.6c0.2-0.9,0.6-1.9,1.1-2.8c0.5-0.9,1-1.8,1.7-2.6c0.7-0.8,1.4-1.5,2.3-2
				c0.3-0.1,0.5-0.2,0.6-0.1c0.1,0,0.1,0.3,0,0.7C223.7,442.7,223.5,444.2,223.1,447z M229.1,439.7c-0.1-0.2-0.2-0.4-0.4-0.6
				c-0.2-0.2-0.4-0.3-0.8-0.3c-0.2,0-0.4,0.1-0.6,0.2c-0.2,0.1-0.3,0.3-0.4,0.5c-0.1,0.2-0.1,0.3-0.1,0.5c0,0.1,0.2,0.2,0.4,0.3
				c0.3,0.1,0.6,0,0.9-0.1C228.5,440.1,228.8,440,229.1,439.7z"/>
			<path class="st1" d="M231.5,448.9c-0.2-0.3-0.3-0.7-0.3-1.1c0-0.4,0-0.9,0.1-1.5c0.4-3.6,0.6-5.5,0.9-9.5c0-0.1,0.1-0.2,0.2-0.3
				c0.1-0.1,0.2-0.2,0.4-0.3c1.5-0.5,2.2-0.8,3.7-1.5c0.2-0.1,0.3-0.1,0.4,0c0.1,0,0.1,0.1,0.1,0.2c-0.3,4.3-0.5,6.4-0.7,10.3
				c0,0.3,0,0.6,0,0.8c0,0.3,0.1,0.5,0.2,0.6c0.1,0.1,0.3,0.2,0.5,0.1c0.2-0.1,0.5-0.3,0.9-0.6c-0.1-0.4-0.2-0.7-0.2-1.1
				c0-0.4,0-0.8,0-1.4c0.2-3.6,0.4-5.4,0.6-9.3c0-0.1,0.1-0.2,0.2-0.3c0.1-0.1,0.2-0.2,0.4-0.3c1.5-0.7,2.3-1.1,3.8-1.9
				c0.1-0.1,0.3-0.1,0.4-0.1c0.1,0,0.2,0.1,0.2,0.2c-0.1,4.4-0.2,6.5-0.3,10.5c0,0.5,0,0.8,0.2,0.8c0.2,0,0.4-0.2,0.7-0.5
				c0.3-0.3,0.5-0.7,0.8-1.1c0.3-0.4,0.4-0.8,0.5-1.1c0.1-0.3,0.2-0.5,0.3-0.7c0.1-0.2,0.3-0.3,0.5-0.3c0.2,0,0.4,0,0.3,0.3
				c-0.1,0.3-0.1,0.5-0.2,0.7c-0.2,0.4-0.3,0.8-0.5,1.2c-0.2,0.4-0.5,0.8-0.8,1.3c-0.6,0.8-1.3,1.5-2.1,2.1c-0.8,0.6-1.6,1-2.3,1.3
				c-0.4,0.2-0.9,0.3-1.2,0.3c-0.4,0-0.7-0.1-0.9-0.4c-0.2,0.3-0.7,0.7-1.2,1.3c-0.6,0.5-1.3,1-2.1,1.4c-0.3,0.1-0.6,0.3-0.9,0.4
				c-0.3,0.1-0.6,0.2-0.9,0.2c-0.3,0-0.6,0-0.8-0.1C231.9,449.3,231.7,449.1,231.5,448.9z"/>
			<path class="st1" d="M256.6,445.8c-0.4,0.3-0.6,0.3-0.7,0c-0.6-7.5-0.6-11.8-0.9-20.9c0-0.3,0.2-0.6,0.6-0.8
				c1.3-0.9,2-1.4,3.3-2.3c0.4-0.3,0.6-0.2,0.6,0.2c0.6-0.7,1.3-1.4,2.1-2.1c0.7-0.7,1.5-1.1,2.2-1.5c0.8-0.4,1.4-0.5,1.9-0.5
				c0.5,0.1,0.9,0.3,1.2,0.7c0.3,0.4,0.5,0.9,0.7,1.5c0.1,0.6,0.2,1.3,0.3,2c0,0.8,0.1,1.5,0.2,2.2c0,0.7,0,1.4-0.1,2
				c-0.1,0.7-0.4,1.4-0.8,2.2c-0.4,0.8-1,1.6-1.8,2.6c-0.7,0.8-1.4,1.5-2.3,2.1c-0.8,0.6-1.8,1.1-2.7,1.5c0.2,3.4,0.3,5,0.6,8.1
				c0,0.1,0,0.3-0.2,0.4c-0.1,0.2-0.3,0.3-0.5,0.4C258.8,444.5,258.1,444.9,256.6,445.8z M260.1,431.6c0,0.5,0.2,0.8,0.4,0.9
				c0.2,0.1,0.5,0,0.8-0.2c0.3-0.2,0.5-0.5,0.8-0.9c0.2-0.4,0.3-0.9,0.3-1.4c-0.2-2.5-0.2-3.9-0.4-6.5c0-0.5-0.2-0.8-0.4-0.9
				c-0.2-0.1-0.5-0.1-0.8,0.1c-0.3,0.2-0.5,0.5-0.7,1c-0.2,0.4-0.3,0.9-0.3,1.5C259.9,427.8,260,429.1,260.1,431.6z"/>
			<path class="st1" d="M272.4,403.3c0.4-0.3,0.6-0.4,0.6-0.1c1.1,8,1.4,11.7,2.2,19c0.9-1.3,1.5-2.6,1.9-4.1
				c0.1-0.4,0.3-0.8,0.6-0.9c0.2-0.1,0.4,0.1,0.3,0.5c-0.6,2.8-2,5.1-4.1,7c-1.4,1.2-2.4,1.7-3,1.7c-0.6-0.1-1-0.7-1.1-1.9
				c-0.6-6.4-0.8-9.7-1.7-16.7c0-0.3,0.1-0.6,0.5-1C270.1,405.4,270.9,404.7,272.4,403.3z"/>
			<path class="st1" d="M279.3,399.6c0.2-0.2,0.2-0.2,0.3-0.1c0.1,0.9,0.2,1.3,0.3,2.1c0,0.1,0,0.3-0.2,0.5
				c-1.7,1.8-2.6,2.7-4.4,4.4c-0.2,0.2-0.2,0.2-0.3,0c-0.1-0.9-0.2-1.3-0.3-2.2c0-0.1,0.1-0.2,0.2-0.4
				C276.7,402.2,277.6,401.4,279.3,399.6z M275.3,408.8c0-0.2,0.1-0.5,0.2-0.7c0.2-0.2,0.4-0.4,0.5-0.6c1.3-1.3,2-2,3.3-3.3
				c0.1-0.1,0.3-0.3,0.5-0.4c0.2-0.2,0.3-0.1,0.3,0.1c0.5,3.7,0.8,5.4,1.2,9c0.1,0.6,0.2,1.1,0.4,1.5c0.2,0.4,0.5,0.7,0.8,0.9
				c0.2,0.1,0.2,0.3,0.1,0.5c-0.1,0.3-0.3,0.5-0.5,0.8c-0.4,0.6-0.9,1.1-1.5,1.6c-0.6,0.5-1.1,0.9-1.5,1.3c-1,0.7-1.8,0.9-2.2,0.5
				c-0.4-0.4-0.7-1.3-0.8-2.5C276,414,275.8,412.3,275.3,408.8z"/>
			<path class="st1" d="M289.3,387.9C289.3,387.9,289.3,387.9,289.3,387.9c-0.1-0.7-0.2-1.5-0.3-2.4c0-0.9,0-1.8,0.2-2.8
				c0.1-1,0.4-2,0.7-3c0.3-1,0.7-2,1.3-3c0.5-0.9,1.1-1.7,1.7-2.4c0.6-0.7,1.2-1,1.6-1c0.2,0,0.3,0.1,0.3,0.2
				c0.1,0.2,0.1,0.3,0.1,0.5c0,0.2-0.1,0.4-0.2,0.5c-0.1,0.2-0.3,0.3-0.5,0.4c-0.6,0.2-1,0.8-1.3,1.7c-0.3,0.9-0.3,2-0.1,3.1
				c0.2,1,0.3,1.5,0.6,2.6c0.9-1.3,1.4-2,2.3-3.4c0.1-0.2,0.2-0.2,0.2-0.1c0.2,0.8,0.3,1.2,0.5,2c0,0.1,0,0.3-0.1,0.5
				c-0.9,1.4-1.4,2.1-2.3,3.4c1.7,7.9,2.4,11.6,3.8,19.4c0.2,1.2,0.2,2.4,0.1,3.6c-0.2,1.1-0.7,2.4-1.6,3.8
				c-0.4,0.6-0.8,1.3-1.3,1.9c-0.5,0.6-0.9,1.1-1.4,1.5c-0.2,0.2-0.4,0.4-0.5,0.4c-0.1,0-0.1-0.2,0-0.7c0.2-0.9,0.3-1.6,0.4-2.3
				c0-0.7,0-1.3-0.1-1.9c-1.3-8-1.9-11.8-3.5-19.9c-0.7,0.9-1.1,1.4-1.9,2.3c-0.1,0.2-0.2,0.2-0.3,0.1c-0.2-0.8-0.2-1.3-0.4-2.1
				c0-0.1,0-0.3,0.2-0.4C288.3,389.3,288.6,388.8,289.3,387.9z"/>
			<path class="st1" d="M302.7,363.1c0.2-0.5,0.4-0.6,0.5-0.2c2,6.5,3,9.4,4.6,15.8c0.1,0.1,0.2,0.1,0.3,0.1c0.1-0.1,0.2-0.4,0.4-1
				c0.1-0.6,0.2-1.1,0.3-1.5c0.1-0.5,0.1-0.9,0.1-1.4c0-0.1,0-0.3,0.1-0.5c0.1-0.2,0.2-0.4,0.3-0.5c0.1-0.1,0.2-0.2,0.2-0.2
				c0.1,0,0.1,0.2,0.1,0.4c0,1.6-0.3,3.3-0.8,4.9c-0.5,1.6-1.1,3.3-2,4.8c-0.5,0.9-0.7,1.4-1.2,2.3c-0.3,0.5-0.4,0.6-0.5,0.4
				c-0.1-0.5-0.2-0.7-0.3-1.2c-0.2,0.9-0.4,1.9-0.8,2.8s-0.8,1.9-1.3,2.8c-0.4,0.7-0.8,1.2-1.2,1.6c-0.4,0.4-0.8,0.7-1.1,0.9
				c-0.4,0.2-0.7,0.2-1,0.2c-0.3,0-0.6-0.2-0.8-0.4c-0.4-0.5-0.7-1.1-0.9-2c-0.2-0.9-0.3-1.9-0.3-3c0-1.1,0.1-2.3,0.4-3.7
				c0.2-1.3,0.6-2.7,1.1-4.1c0.4-1.2,0.9-2.3,1.5-3.3c0.6-1,1.1-1.8,1.7-2.5c-0.7-2.5-1-3.8-1.7-6.3c-0.1-0.3,0-0.6,0.2-1
				C301.5,365.5,301.9,364.7,302.7,363.1z M302.6,376.1c-0.1-0.1-0.3,0-0.4,0.2c-0.2,0.2-0.4,0.5-0.5,0.8c-0.2,0.3-0.3,0.7-0.4,1
				c-0.1,0.4-0.1,0.7,0,1c0.7,2.8,1.1,4.1,1.7,6.9c0.1,0.3,0.2,0.4,0.4,0.3c0.2-0.1,0.4-0.3,0.5-0.6c0.2-0.3,0.3-0.6,0.5-1
				c0.1-0.4,0.2-0.8,0.2-1.1C303.8,380.5,303.4,379,302.6,376.1z"/>
		</g>
	</g>
</g>
</svg>
